<?xml version="1.0" encoding="utf-8" standalone="no"?>
<!DOCTYPE svg PUBLIC "-//W3C//DTD SVG 1.1//EN"
  "http://www.w3.org/Graphics/SVG/1.1/DTD/svg11.dtd">
<svg xmlns:xlink="http://www.w3.org/1999/xlink" width="262.08pt" height="132.48pt" viewBox="0 0 262.08 132.48" xmlns="http://www.w3.org/2000/svg" version="1.1">
 <metadata>
  <rdf:RDF xmlns:dc="http://purl.org/dc/elements/1.1/" xmlns:cc="http://creativecommons.org/ns#" xmlns:rdf="http://www.w3.org/1999/02/22-rdf-syntax-ns#">
   <cc:Work>
    <dc:type rdf:resource="http://purl.org/dc/dcmitype/StillImage"/>
    <dc:date>2025-05-04T21:05:21.422817</dc:date>
    <dc:format>image/svg+xml</dc:format>
    <dc:creator>
     <cc:Agent>
      <dc:title>Matplotlib v3.9.2, https://matplotlib.org/</dc:title>
     </cc:Agent>
    </dc:creator>
   </cc:Work>
  </rdf:RDF>
 </metadata>
 <defs>
  <style type="text/css">*{stroke-linejoin: round; stroke-linecap: butt}</style>
 </defs>
 <g id="figure_1">
  <g id="patch_1">
   <path d="M 0 132.48 
L 262.08 132.48 
L 262.08 0 
L 0 0 
z
" style="fill: #ffffff"/>
  </g>
  <g id="axes_1">
   <g id="line2d_1">
    <path d="M 13.221818 49.037433 
L 19.263776 30.036286 
L 25.305734 11.11882 
L 31.347692 17.111728 
L 37.38965 14.385272 
L 43.431608 30.587181 
L 49.473566 37.415107 
L 55.515524 31.632879 
L 61.557483 56.197349 
L 67.599441 64.389172 
L 73.641399 88.432313 
L 79.683357 108.225473 
L 85.725315 125.149091 
L 91.767273 100.059389 
L 97.809231 99.511699 
L 103.851189 76.170129 
L 109.893147 66.794122 
L 115.935105 46.099295 
L 121.977063 37.761277 
L 128.019021 10.262207 
L 134.060979 20.366925 
L 140.102937 12.244903 
L 146.144895 7.330909 
L 152.186853 47.806913 
L 158.228811 59.659494 
L 164.270769 71.887797 
L 170.312727 91.828704 
L 176.354685 93.887808 
L 182.396643 106.147429 
L 188.438601 113.447503 
L 194.480559 103.980239 
L 200.522517 101.524398 
L 206.564476 84.443278 
L 212.606434 79.282304 
L 218.648392 54.589726 
L 224.69035 62.389222 
L 230.732308 63.799748 
L 236.774266 60.224412 
L 242.816224 78.068117 
L 248.858182 96.751574 
" clip-path="url(#p27d3997ff1)" style="fill: none; stroke: #000000; stroke-width: 1.8; stroke-linecap: round"/>
   </g>
  </g>
 </g>
 <defs>
  <clipPath id="p27d3997ff1">
   <rect x="1.44" y="1.44" width="259.2" height="129.6"/>
  </clipPath>
 </defs>
</svg>
