<?xml version="1.0" encoding="utf-8" standalone="no"?>
<!DOCTYPE svg PUBLIC "-//W3C//DTD SVG 1.1//EN"
  "http://www.w3.org/Graphics/SVG/1.1/DTD/svg11.dtd">
<svg xmlns:xlink="http://www.w3.org/1999/xlink" width="720pt" height="360pt" viewBox="0 0 720 360" xmlns="http://www.w3.org/2000/svg" version="1.1">
 <metadata>
  <rdf:RDF xmlns:dc="http://purl.org/dc/elements/1.1/" xmlns:cc="http://creativecommons.org/ns#" xmlns:rdf="http://www.w3.org/1999/02/22-rdf-syntax-ns#">
   <cc:Work>
    <dc:type rdf:resource="http://purl.org/dc/dcmitype/StillImage"/>
    <dc:date>2025-05-04T21:04:11.733309</dc:date>
    <dc:format>image/svg+xml</dc:format>
    <dc:creator>
     <cc:Agent>
      <dc:title>Matplotlib v3.9.2, https://matplotlib.org/</dc:title>
     </cc:Agent>
    </dc:creator>
   </cc:Work>
  </rdf:RDF>
 </metadata>
 <defs>
  <style type="text/css">*{stroke-linejoin: round; stroke-linecap: butt}</style>
 </defs>
 <g id="figure_1">
  <g id="patch_1">
   <path d="M 0 360 
L 720 360 
L 720 0 
L 0 0 
z
" style="fill: #ffffff"/>
  </g>
  <g id="axes_1">
   <g id="line2d_1">
    <path d="M 32.727273 152.369863 
L 39.338843 144.994058 
L 45.950413 109.846896 
L 52.561983 73.829469 
L 59.173554 91.444378 
L 65.785124 75.877971 
L 72.396694 26.371716 
L 79.008264 31.412669 
L 85.619835 47.547883 
L 92.231405 21.845306 
L 98.842975 39.204077 
L 105.454545 39.65321 
L 112.066116 29.017594 
L 118.677686 78.201754 
L 125.289256 83.622362 
L 131.900826 72.273865 
L 138.512397 95.291328 
L 145.123967 84.988064 
L 151.735537 126.959287 
L 158.347107 155.887966 
L 164.958678 118.41079 
L 171.570248 172.049717 
L 178.181818 186.13631 
L 184.793388 235.118422 
L 191.404959 235.942303 
L 198.016529 239.79644 
L 204.628099 279.912112 
L 211.239669 262.454656 
L 217.85124 292.257168 
L 224.46281 293.819494 
L 231.07438 304.796412 
L 237.68595 257.868914 
L 244.297521 293.727018 
L 250.909091 310.256633 
L 257.520661 265.77623 
L 264.132231 296.499424 
L 270.743802 255.702611 
L 277.355372 284.154828 
L 283.966942 255.078138 
L 290.578512 206.726534 
L 297.190083 176.803832 
L 303.801653 168.237659 
L 310.413223 153.891671 
L 317.024793 137.771867 
L 323.636364 142.056882 
L 330.247934 109.013241 
L 336.859504 87.439749 
L 343.471074 42.786279 
L 350.082645 44.71676 
L 356.694215 76.861153 
L 363.305785 28.447148 
L 369.917355 38.504599 
L 376.528926 43.281484 
L 383.140496 19.693854 
L 389.752066 16.363636 
L 396.363636 26.218246 
L 402.975207 71.958619 
L 409.586777 74.44587 
L 416.198347 76.890752 
L 422.809917 81.064787 
L 429.421488 128.355171 
L 436.033058 141.908147 
L 442.644628 180.13359 
L 449.256198 201.947152 
L 455.867769 181.702764 
L 462.479339 189.747786 
L 469.090909 235.721795 
L 475.702479 230.30241 
L 482.31405 256.986745 
L 488.92562 288.584077 
L 495.53719 277.582788 
L 502.14876 260.394241 
L 508.760331 294.900316 
L 515.371901 263.31908 
L 521.983471 343.636364 
L 528.595041 269.484602 
L 535.206612 275.475262 
L 541.818182 271.902124 
L 548.429752 250.519363 
L 555.041322 276.145069 
L 561.652893 223.633368 
L 568.264463 193.47855 
L 574.876033 151.63786 
L 581.487603 171.291146 
L 588.099174 157.081273 
L 594.710744 131.497885 
L 601.322314 84.786666 
L 607.933884 79.242752 
L 614.545455 80.851858 
L 621.157025 46.789353 
L 627.768595 44.128507 
L 634.380165 18.546047 
L 640.991736 46.321828 
L 647.603306 36.443726 
L 654.214876 38.315398 
L 660.826446 63.210117 
L 667.438017 34.796219 
L 674.049587 44.822605 
L 680.661157 61.808613 
L 687.272727 80.770766 
" clip-path="url(#p571ba0af64)" style="fill: none; stroke: #000000; stroke-width: 2.5; stroke-linecap: square"/>
   </g>
   <g id="line2d_2">
    <path d="M 0 3.11908 
L 720 3.11908 
" clip-path="url(#p571ba0af64)" style="fill: none; stroke-dasharray: 4.44,1.92; stroke-dashoffset: 0; stroke: #add8e6; stroke-width: 1.2"/>
   </g>
   <g id="line2d_3">
    <path d="M 0 356.88092 
L 720 356.88092 
" clip-path="url(#p571ba0af64)" style="fill: none; stroke-dasharray: 4.44,1.92; stroke-dashoffset: 0; stroke: #add8e6; stroke-width: 1.2"/>
   </g>
  </g>
 </g>
 <defs>
  <clipPath id="p571ba0af64">
   <rect x="0" y="0" width="720" height="360"/>
  </clipPath>
 </defs>
</svg>
