<?xml version="1.0" encoding="utf-8" standalone="no"?>
<!DOCTYPE svg PUBLIC "-//W3C//DTD SVG 1.1//EN"
  "http://www.w3.org/Graphics/SVG/1.1/DTD/svg11.dtd">
<svg xmlns:xlink="http://www.w3.org/1999/xlink" width="684pt" height="221.76pt" viewBox="0 0 684 221.76" xmlns="http://www.w3.org/2000/svg" version="1.1">
 <metadata>
  <rdf:RDF xmlns:dc="http://purl.org/dc/elements/1.1/" xmlns:cc="http://creativecommons.org/ns#" xmlns:rdf="http://www.w3.org/1999/02/22-rdf-syntax-ns#">
   <cc:Work>
    <dc:type rdf:resource="http://purl.org/dc/dcmitype/StillImage"/>
    <dc:date>2025-05-05T15:32:35.744758</dc:date>
    <dc:format>image/svg+xml</dc:format>
    <dc:creator>
     <cc:Agent>
      <dc:title>Matplotlib v3.9.2, https://matplotlib.org/</dc:title>
     </cc:Agent>
    </dc:creator>
   </cc:Work>
  </rdf:RDF>
 </metadata>
 <defs>
  <style type="text/css">*{stroke-linejoin: round; stroke-linecap: butt}</style>
 </defs>
 <g id="figure_1">
  <g id="patch_1">
   <path d="M 0 221.76 
L 684 221.76 
L 684 0 
L 0 0 
z
" style="fill: #ffffff"/>
  </g>
  <g id="axes_1">
   <g id="line2d_1">
    <path d="M 7.2 47.89951 
L 9.8784 48.114539 
L 12.5568 47.107254 
L 15.2352 44.738638 
L 20.592 45.466923 
L 23.2704 43.010931 
L 25.9488 41.817416 
L 28.6272 42.547543 
L 31.3056 41.703754 
L 36.6624 43.148764 
L 39.3408 42.772464 
L 42.0192 45.747997 
L 44.6976 48.43059 
L 47.376 49.305059 
L 50.0544 50.880214 
L 52.7328 50.391497 
L 55.4112 51.803656 
L 58.0896 54.00007 
L 60.768 51.720693 
L 63.4464 52.071821 
L 66.1248 51.966801 
L 68.8032 54.182569 
L 71.4816 55.029193 
L 74.16 54.856687 
L 76.8384 56.646712 
L 79.5168 56.062426 
L 82.1952 56.996539 
L 84.8736 57.450182 
L 87.552 58.385956 
L 90.2304 55.505293 
L 92.9088 55.526284 
L 95.5872 57.171236 
L 98.2656 55.892014 
L 100.944 57.79067 
L 103.6224 57.465845 
L 106.3008 60.513524 
L 108.9792 62.579119 
L 111.6576 62.27296 
L 114.336 61.124497 
L 117.0144 60.857985 
L 119.6928 61.037841 
L 122.3712 61.506118 
L 125.0496 63.805515 
L 127.728 64.925017 
L 130.4064 65.641402 
L 133.0848 63.997366 
L 135.7632 63.462971 
L 138.4416 66.204851 
L 141.12 65.700835 
L 143.7984 66.299715 
L 146.4768 67.352465 
L 149.1552 66.401186 
L 151.8336 64.797775 
L 154.512 63.349448 
L 157.1904 64.654599 
L 159.8688 65.135486 
L 162.5472 64.620306 
L 165.2256 63.103138 
L 167.904 63.84835 
L 170.5824 64.137086 
L 173.2608 65.857659 
L 175.9392 67.717999 
L 178.6176 66.454359 
L 181.296 64.345134 
L 183.9744 64.457125 
L 186.6528 62.89643 
L 189.3312 62.334014 
L 192.0096 63.337304 
L 194.688 62.775262 
L 197.3664 60.383307 
L 200.0448 60.439024 
L 202.7232 58.00569 
L 205.4016 62.079918 
L 208.08 60.801695 
L 210.7584 60.666319 
L 213.4368 61.131335 
L 216.1152 60.988629 
L 218.7936 64.079696 
L 221.472 64.42133 
L 224.1504 63.865949 
L 226.8288 61.567528 
L 229.5072 62.373542 
L 232.1856 63.630911 
L 234.864 64.411243 
L 237.5424 62.98761 
L 240.2208 62.476336 
L 242.8992 63.300219 
L 245.5776 62.501986 
L 248.256 62.351011 
L 250.9344 60.844574 
L 253.6128 61.936407 
L 258.9696 63.055794 
L 261.648 65.331852 
L 267.0048 64.465333 
L 269.6832 64.45738 
L 272.3616 64.82221 
L 275.04 67.023395 
L 277.7184 67.677583 
L 280.3968 68.210572 
L 283.0752 69.458274 
L 285.7536 69.709105 
L 288.432 69.080725 
L 291.1104 66.147329 
L 293.7888 65.875826 
L 296.4672 65.475283 
L 299.1456 65.591062 
L 301.824 68.575135 
L 304.5024 68.616369 
L 307.1808 68.522699 
L 309.8592 64.691865 
L 312.5376 64.991025 
L 315.216 64.522058 
L 317.8944 64.576042 
L 320.5728 66.39357 
L 323.2512 64.616252 
L 328.608 62.216633 
L 331.2864 63.630912 
L 333.9648 61.449287 
L 336.6432 63.629445 
L 339.3216 62.716765 
L 342 59.310169 
L 344.6784 60.850651 
L 347.3568 61.731357 
L 350.0352 61.576379 
L 352.7136 62.359384 
L 355.392 64.770976 
L 358.0704 64.664347 
L 360.7488 66.316442 
L 363.4272 65.579911 
L 366.1056 67.009799 
L 368.784 64.599341 
L 371.4624 65.817457 
L 374.1408 66.318327 
L 376.8192 65.053145 
L 379.4976 66.967385 
L 382.176 66.613639 
L 384.8544 64.580771 
L 387.5328 67.080729 
L 390.2112 66.793586 
L 392.8896 66.389417 
L 395.568 65.173526 
L 400.9248 69.150806 
L 403.6032 68.339082 
L 411.6384 66.948849 
L 414.3168 68.006423 
L 419.6736 67.189436 
L 422.352 68.300395 
L 425.0304 65.398743 
L 427.7088 64.661838 
L 430.3872 66.514553 
L 433.0656 65.493481 
L 435.744 67.009306 
L 438.4224 65.785232 
L 441.1008 63.983384 
L 443.7792 65.259709 
L 446.4576 63.761467 
L 449.136 63.11951 
L 451.8144 61.841042 
L 454.4928 58.891149 
L 457.1712 59.272777 
L 459.8496 60.444987 
L 465.2064 63.097108 
L 467.8848 63.217017 
L 473.2416 62.256148 
L 475.92 60.969712 
L 478.5984 60.949492 
L 481.2768 58.688956 
L 483.9552 59.10055 
L 486.6336 54.870143 
L 489.312 53.897105 
L 491.9904 55.230157 
L 494.6688 56.895609 
L 497.3472 56.145267 
L 500.0256 56.492797 
L 502.704 55.382383 
L 505.3824 54.646404 
L 508.0608 54.759668 
L 510.7392 56.076601 
L 513.4176 58.432492 
L 516.096 59.126912 
L 518.7744 57.79504 
L 521.4528 57.462082 
L 524.1312 59.399455 
L 526.8096 59.130124 
L 529.488 58.530878 
L 532.1664 59.905453 
L 534.8448 59.66638 
L 537.5232 59.575854 
L 540.2016 61.353401 
L 542.88 60.79697 
L 545.5584 59.924838 
L 550.9152 56.601604 
L 553.5936 58.744155 
L 556.272 60.202661 
L 564.3072 57.801636 
L 566.9856 51.809868 
L 569.664 50.922019 
L 572.3424 49.155987 
L 575.0208 47.672324 
L 577.6992 46.65928 
L 580.3776 47.149587 
L 583.056 45.969238 
L 585.7344 47.171135 
L 588.4128 47.539436 
L 591.0912 48.294273 
L 593.7696 48.166943 
L 596.448 44.567186 
L 599.1264 47.471156 
L 601.8048 46.403884 
L 604.4832 48.91198 
L 607.1616 49.645929 
L 609.84 47.952393 
L 612.5184 47.852424 
L 615.1968 49.528533 
L 617.8752 50.640973 
L 620.5536 49.584063 
L 623.232 50.719929 
L 625.9104 50.383293 
L 628.5888 50.312419 
L 631.2672 51.325788 
L 633.9456 47.991526 
L 636.624 47.005656 
L 639.3024 50.155157 
L 641.9808 49.865184 
L 644.6592 50.894394 
L 647.3376 49.56869 
L 650.016 50.801218 
L 652.6944 50.979656 
L 655.3728 50.1943 
L 658.0512 48.847877 
L 660.7296 50.714578 
L 663.408 51.234795 
L 666.0864 51.973429 
L 668.7648 52.989487 
L 671.4432 50.243853 
L 674.1216 49.614025 
L 674.1216 49.614025 
" clip-path="url(#p94580bfc6d)" style="fill: none; stroke: #1f77b4; stroke-opacity: 0.9; stroke-width: 2; stroke-linecap: square"/>
   </g>
  </g>
 </g>
 <defs>
  <clipPath id="p94580bfc6d">
   <rect x="7.2" y="7.2" width="669.6" height="207.36"/>
  </clipPath>
 </defs>
</svg>
