<?xml version="1.0" encoding="utf-8" standalone="no"?>
<!DOCTYPE svg PUBLIC "-//W3C//DTD SVG 1.1//EN"
  "http://www.w3.org/Graphics/SVG/1.1/DTD/svg11.dtd">
<svg xmlns:xlink="http://www.w3.org/1999/xlink" width="446.4pt" height="221.76pt" viewBox="0 0 446.4 221.76" xmlns="http://www.w3.org/2000/svg" version="1.1">
 <metadata>
  <rdf:RDF xmlns:dc="http://purl.org/dc/elements/1.1/" xmlns:cc="http://creativecommons.org/ns#" xmlns:rdf="http://www.w3.org/1999/02/22-rdf-syntax-ns#">
   <cc:Work>
    <dc:type rdf:resource="http://purl.org/dc/dcmitype/StillImage"/>
    <dc:date>2025-05-04T21:14:10.627350</dc:date>
    <dc:format>image/svg+xml</dc:format>
    <dc:creator>
     <cc:Agent>
      <dc:title>Matplotlib v3.9.2, https://matplotlib.org/</dc:title>
     </cc:Agent>
    </dc:creator>
   </cc:Work>
  </rdf:RDF>
 </metadata>
 <defs>
  <style type="text/css">*{stroke-linejoin: round; stroke-linecap: butt}</style>
 </defs>
 <g id="figure_1">
  <g id="patch_1">
   <path d="M 0 221.76 
L 446.4 221.76 
L 446.4 0 
L 0 0 
z
" style="fill: #ffffff"/>
  </g>
  <g id="axes_1">
   <g id="line2d_1">
    <path d="M 0 95.308643 
L 4.509091 91.151903 
L 9.018182 71.344219 
L 13.527273 51.046085 
L 18.036364 60.973217 
L 22.545455 52.200547 
L 27.054545 24.300592 
L 31.563636 27.141493 
L 36.072727 36.234722 
L 40.581818 21.749669 
L 45.090909 31.532452 
L 49.6 31.785567 
L 54.109091 25.791714 
L 58.618182 53.510148 
L 63.127273 56.565009 
L 67.636364 50.169402 
L 72.145455 63.141221 
L 76.654545 57.33467 
L 81.163636 80.98815 
L 85.672727 97.29132 
L 90.181818 76.170523 
L 94.690909 106.399505 
L 99.2 114.338205 
L 103.709091 141.942772 
L 108.218182 142.407082 
L 112.727273 144.579136 
L 117.236364 167.186894 
L 121.745455 157.348496 
L 126.254545 174.144126 
L 130.763636 175.024597 
L 135.272727 181.210796 
L 139.781818 154.764136 
L 144.290909 174.972481 
L 148.8 184.287981 
L 153.309091 159.220416 
L 157.818182 176.53491 
L 162.327273 153.543285 
L 166.836364 169.577937 
L 171.345455 153.191354 
L 175.854545 125.942119 
L 180.363636 109.078754 
L 184.872727 104.251165 
L 189.381818 96.166279 
L 193.890909 87.081734 
L 198.4 89.496615 
L 202.909091 70.8744 
L 207.418182 58.716352 
L 211.927273 33.551252 
L 216.436364 34.639203 
L 220.945455 52.754633 
L 225.454545 25.470231 
L 229.963636 31.138251 
L 234.472727 33.830332 
L 238.981818 20.537188 
L 243.490909 18.660396 
L 248 24.214102 
L 252.509091 49.99174 
L 257.018182 51.393466 
L 261.527273 52.771314 
L 266.036364 55.123651 
L 270.545455 81.774821 
L 275.054545 89.412794 
L 279.563636 110.955287 
L 284.072727 123.24863 
L 288.581818 111.839617 
L 293.090909 116.373504 
L 297.6 142.282812 
L 302.109091 139.22864 
L 306.618182 154.266977 
L 311.127273 172.074104 
L 315.636364 165.87417 
L 320.145455 156.18732 
L 324.654545 175.63371 
L 329.163636 157.835655 
L 333.672727 203.099604 
L 338.181818 161.310323 
L 342.690909 164.686444 
L 347.2 162.672752 
L 351.709091 150.622192 
L 356.218182 165.063923 
L 360.727273 135.470206 
L 365.236364 124.368786 
L 369.745455 106.681625 
L 374.254545 123.650271 
L 378.763636 121.534851 
L 383.272727 113.009725 
L 387.781818 92.577708 
L 392.290909 95.346113 
L 396.8 102.145705 
L 401.309091 88.842051 
L 405.818182 93.23525 
L 410.327273 84.710647 
L 414.836364 106.25684 
L 419.345455 106.582652 
L 423.854545 113.530216 
L 428.363636 133.452746 
L 432.872727 123.332446 
L 437.381818 134.875715 
L 441.890909 150.341178 
L 446.4 166.920326 
" clip-path="url(#p44da24e9ff)" style="fill: none; stroke: #000000; stroke-width: 2.5; stroke-linecap: square"/>
   </g>
  </g>
 </g>
 <defs>
  <clipPath id="p44da24e9ff">
   <rect x="0" y="-0" width="446.4" height="221.76"/>
  </clipPath>
 </defs>
</svg>
