<?xml version="1.0" encoding="utf-8" standalone="no"?>
<!DOCTYPE svg PUBLIC "-//W3C//DTD SVG 1.1//EN"
  "http://www.w3.org/Graphics/SVG/1.1/DTD/svg11.dtd">
<svg xmlns:xlink="http://www.w3.org/1999/xlink" width="864pt" height="432pt" viewBox="0 0 864 432" xmlns="http://www.w3.org/2000/svg" version="1.1">
 <metadata>
  <rdf:RDF xmlns:dc="http://purl.org/dc/elements/1.1/" xmlns:cc="http://creativecommons.org/ns#" xmlns:rdf="http://www.w3.org/1999/02/22-rdf-syntax-ns#">
   <cc:Work>
    <dc:type rdf:resource="http://purl.org/dc/dcmitype/StillImage"/>
    <dc:date>2025-05-05T15:26:11.480064</dc:date>
    <dc:format>image/svg+xml</dc:format>
    <dc:creator>
     <cc:Agent>
      <dc:title>Matplotlib v3.9.2, https://matplotlib.org/</dc:title>
     </cc:Agent>
    </dc:creator>
   </cc:Work>
  </rdf:RDF>
 </metadata>
 <defs>
  <style type="text/css">*{stroke-linejoin: round; stroke-linecap: butt}</style>
 </defs>
 <g id="figure_1">
  <g id="patch_1">
   <path d="M 0 432 
L 864 432 
L 864 0 
L 0 0 
z
" style="fill: #ffffff"/>
  </g>
  <g id="axes_1">
   <g id="line2d_1">
    <path d="M 108 92.53951 
L 110.6784 92.754539 
L 113.3568 91.747254 
L 116.0352 89.378638 
L 121.392 90.106923 
L 124.0704 87.650931 
L 126.7488 86.457416 
L 129.4272 87.187543 
L 132.1056 86.343754 
L 137.4624 87.788764 
L 140.1408 87.412464 
L 142.8192 90.387997 
L 145.4976 93.07059 
L 148.176 93.945059 
L 150.8544 95.520214 
L 153.5328 95.031497 
L 156.2112 96.443656 
L 158.8896 98.64007 
L 161.568 96.360693 
L 164.2464 96.711821 
L 166.9248 96.606801 
L 169.6032 98.822569 
L 172.2816 99.669193 
L 174.96 99.496687 
L 177.6384 101.286712 
L 180.3168 100.702426 
L 182.9952 101.636539 
L 185.6736 102.090182 
L 188.352 103.025956 
L 191.0304 100.145293 
L 193.7088 100.166284 
L 196.3872 101.811236 
L 199.0656 100.532014 
L 201.744 102.43067 
L 204.4224 102.105845 
L 207.1008 105.153524 
L 209.7792 107.219119 
L 212.4576 106.91296 
L 215.136 105.764497 
L 217.8144 105.497985 
L 220.4928 105.677841 
L 223.1712 106.146118 
L 225.8496 108.445515 
L 228.528 109.565017 
L 231.2064 110.281402 
L 233.8848 108.637366 
L 236.5632 108.102971 
L 239.2416 110.844851 
L 241.92 110.340835 
L 244.5984 110.939715 
L 247.2768 111.992465 
L 249.9552 111.041186 
L 252.6336 109.437775 
L 255.312 107.989448 
L 257.9904 109.294599 
L 260.6688 109.775486 
L 263.3472 109.260306 
L 266.0256 107.743138 
L 268.704 108.48835 
L 271.3824 108.777086 
L 274.0608 110.497659 
L 276.7392 112.357999 
L 279.4176 111.094359 
L 282.096 108.985134 
L 284.7744 109.097125 
L 287.4528 107.53643 
L 290.1312 106.974014 
L 292.8096 107.977304 
L 295.488 107.415262 
L 298.1664 105.023307 
L 300.8448 105.079024 
L 303.5232 102.64569 
L 306.2016 106.719918 
L 308.88 105.441695 
L 311.5584 105.306319 
L 314.2368 105.771335 
L 316.9152 105.628629 
L 319.5936 108.719696 
L 322.272 109.06133 
L 324.9504 108.505949 
L 327.6288 106.207528 
L 330.3072 107.013542 
L 332.9856 108.270911 
L 335.664 109.051243 
L 338.3424 107.62761 
L 341.0208 107.116336 
L 343.6992 107.940219 
L 346.3776 107.141986 
L 349.056 106.991011 
L 351.7344 105.484574 
L 354.4128 106.576407 
L 359.7696 107.695794 
L 362.448 109.971852 
L 367.8048 109.105333 
L 370.4832 109.09738 
L 373.1616 109.46221 
L 375.84 111.663395 
L 378.5184 112.317583 
L 381.1968 112.850572 
L 383.8752 114.098274 
L 386.5536 114.349105 
L 389.232 113.720725 
L 391.9104 110.787329 
L 394.5888 110.515826 
L 397.2672 110.115283 
L 399.9456 110.231062 
L 402.624 113.215135 
L 405.3024 113.256369 
L 407.9808 113.162699 
L 410.6592 109.331865 
L 413.3376 109.631025 
L 416.016 109.162058 
L 418.6944 109.216042 
L 421.3728 111.03357 
L 424.0512 109.256252 
L 429.408 106.856633 
L 432.0864 108.270912 
L 434.7648 106.089287 
L 437.4432 108.269445 
L 440.1216 107.356765 
L 442.8 103.950169 
L 445.4784 105.490651 
L 448.1568 106.371357 
L 450.8352 106.216379 
L 453.5136 106.999384 
L 456.192 109.410976 
L 458.8704 109.304347 
L 461.5488 110.956442 
L 464.2272 110.219911 
L 466.9056 111.649799 
L 469.584 109.239341 
L 472.2624 110.457457 
L 474.9408 110.958327 
L 477.6192 109.693145 
L 480.2976 111.607385 
L 482.976 111.253639 
L 485.6544 109.220771 
L 488.3328 111.720729 
L 491.0112 111.433586 
L 493.6896 111.029417 
L 496.368 109.813526 
L 501.7248 113.790806 
L 504.4032 112.979082 
L 512.4384 111.588849 
L 515.1168 112.646423 
L 520.4736 111.829436 
L 523.152 112.940395 
L 525.8304 110.038743 
L 528.5088 109.301838 
L 531.1872 111.154553 
L 533.8656 110.133481 
L 536.544 111.649306 
L 539.2224 110.425232 
L 541.9008 108.623384 
L 544.5792 109.899709 
L 547.2576 108.401467 
L 549.936 107.75951 
L 552.6144 106.481042 
L 555.2928 103.531149 
L 557.9712 103.912777 
L 560.6496 105.084987 
L 566.0064 107.737108 
L 568.6848 107.857017 
L 574.0416 106.896148 
L 576.72 105.609712 
L 579.3984 105.589492 
L 582.0768 103.328956 
L 584.7552 103.74055 
L 587.4336 99.510143 
L 590.112 98.537105 
L 592.7904 99.870157 
L 595.4688 101.535609 
L 598.1472 100.785267 
L 600.8256 101.132797 
L 603.504 100.022383 
L 606.1824 99.286404 
L 608.8608 99.399668 
L 611.5392 100.716601 
L 614.2176 103.072492 
L 616.896 103.766912 
L 619.5744 102.43504 
L 622.2528 102.102082 
L 624.9312 104.039455 
L 627.6096 103.770124 
L 630.288 103.170878 
L 632.9664 104.545453 
L 635.6448 104.30638 
L 638.3232 104.215854 
L 641.0016 105.993401 
L 643.68 105.43697 
L 646.3584 104.564838 
L 651.7152 101.241604 
L 654.3936 103.384155 
L 657.072 104.842661 
L 665.1072 102.441636 
L 667.7856 96.449868 
L 670.464 95.562019 
L 673.1424 93.795987 
L 675.8208 92.312324 
L 678.4992 91.29928 
L 681.1776 91.789587 
L 683.856 90.609238 
L 686.5344 91.811135 
L 689.2128 92.179436 
L 691.8912 92.934273 
L 694.5696 92.806943 
L 697.248 89.207186 
L 699.9264 92.111156 
L 702.6048 91.043884 
L 705.2832 93.55198 
L 707.9616 94.285929 
L 710.64 92.592393 
L 713.3184 92.492424 
L 715.9968 94.168533 
L 718.6752 95.280973 
L 721.3536 94.224063 
L 724.032 95.359929 
L 726.7104 95.023293 
L 729.3888 94.952419 
L 732.0672 95.965788 
L 734.7456 92.631526 
L 737.424 91.645656 
L 740.1024 94.795157 
L 742.7808 94.505184 
L 745.4592 95.534394 
L 748.1376 94.20869 
L 750.816 95.441218 
L 753.4944 95.619656 
L 756.1728 94.8343 
L 758.8512 93.487877 
L 761.5296 95.354578 
L 764.208 95.874795 
L 766.8864 96.613429 
L 769.5648 97.629487 
L 772.2432 94.883853 
L 774.9216 94.254025 
L 774.9216 94.254025 
" clip-path="url(#p8a1bff086d)" style="fill: none; stroke: #1f77b4; stroke-opacity: 0.9; stroke-width: 2; stroke-linecap: square"/>
   </g>
  </g>
 </g>
 <defs>
  <clipPath id="p8a1bff086d">
   <rect x="108" y="51.84" width="669.6" height="207.36"/>
  </clipPath>
 </defs>
</svg>
